<?xml version="1.0" encoding="UTF-8" standalone="no"?>
<svg
   version="1.0"
   width="600pt"
   height="600pt"
   viewBox="0 0 600 600"
   preserveAspectRatio="xMidYMid"
   id="svg5"
   sodipodi:docname="loom-logo-traced-7.svg"
   inkscape:version="1.4.2 (ebf0e940, 2025-05-08)"
   xmlns:inkscape="http://www.inkscape.org/namespaces/inkscape"
   xmlns:sodipodi="http://sodipodi.sourceforge.net/DTD/sodipodi-0.dtd"
   xmlns="http://www.w3.org/2000/svg"
   xmlns:svg="http://www.w3.org/2000/svg">
  <defs
     id="defs5" />
  <sodipodi:namedview
     id="namedview5"
     pagecolor="#000000"
     bordercolor="#000000"
     borderopacity="0.25"
     inkscape:showpageshadow="2"
     inkscape:pageopacity="0.0"
     inkscape:pagecheckerboard="0"
     inkscape:deskcolor="#d1d1d1"
     inkscape:document-units="pt"
     inkscape:zoom="0.5"
     inkscape:cx="192"
     inkscape:cy="329"
     inkscape:window-width="1512"
     inkscape:window-height="916"
     inkscape:window-x="0"
     inkscape:window-y="38"
     inkscape:window-maximized="1"
     inkscape:current-layer="svg5" />
  <metadata
     id="metadata1">
Created by potrace 1.16, written by Peter Selinger 2001-2019
</metadata>
  <rect
     width="600"
     height="600"
     fill="#000000"
     id="rect1" />
  <g
     transform="matrix(0.1,0,0,-0.1,-213.775,887.60087)"
     fill="#ffffff"
     stroke="none"
     id="g5"
     style="fill:#ffffff;fill-opacity:1">
    <path
       d="m 2637,5480 a 2502,2502 0 1 0 5003,0 h -195 a 2307,2307 0 1 1 -4613,0 z"
       id="path1"
       style="fill:#ffffff;fill-opacity:1" />
    <path
       d="m 4200,4850 a 565,565 0 1 1 0,-1130 565,565 0 1 1 0,1130 z m 0,-195 a 370,370 0 1 0 0,-740 370,370 0 1 0 0,740 z"
       id="path2"
       style="fill:#ffffff;fill-opacity:1" />
    <path
       d="m 5630,4850 a 565,565 0 1 1 0,-1130 565,565 0 1 1 0,1130 z m 0,-195 a 370,370 0 1 0 0,-740 370,370 0 1 0 0,740 z"
       id="path3"
       style="fill:#ffffff;fill-opacity:1" />
    <path
       d="m 2637,4285 3,-560 365,-3 365,-2 v 93 92 h -270 -270 v 470 470 h -97 -98 z"
       id="path4"
       style="fill:#ffffff;fill-opacity:1" />
    <path
       d="m 6480,4283 v -563 l 97,2 98,2 3,393 2,393 101,-185 c 55,-102 139,-258 186,-348 47,-90 89,-160 93,-155 4,4 54,94 110,198 56,105 139,257 184,338 l 81,148 3,-393 2,-393 100,3 100,3 v 560 559 h -123 -122 l -165,-330 c -91,-181 -167,-330 -170,-330 -3,0 -79,149 -169,330 l -164,330 h -124 -123 z"
       id="path5"
       style="fill:#ffffff;fill-opacity:1" />
  </g>
</svg>
